<svg width="1714" height="1150" viewBox="0 0 1714 1150" fill="none" xmlns="http://www.w3.org/2000/svg">
<path opacity="0.1" d="M563.357 294.249H562.357V295.249V679.442V681.43L563.953 680.245L682.84 592.013H981.592H982.592V591.013V295.249V294.249H981.592H563.357ZM703.416 655.739H703.092L702.83 655.929L546.666 768.91C527.236 782.968 500.013 769.135 500.013 745.23V259.791C500.013 243.631 513.165 230.523 529.397 230.523H1015.55C1031.78 230.523 1044.94 243.631 1044.94 259.791V411.133V412.133H1045.94H1167.47C1183.71 412.133 1196.86 425.241 1196.86 441.401V866.073C1196.86 890.021 1169.55 903.843 1150.13 889.7L1016.76 792.57L1016.49 792.379H1016.17H742.09C725.857 792.379 712.705 779.271 712.705 763.11V656.739V655.739H711.705H703.416ZM1141.66 469.94V468.94H1140.66H1045.94H1044.94V469.94V626.471C1044.94 642.631 1031.78 655.739 1015.55 655.739H768.899H767.899V656.739V734.572V735.572H768.899H1034.42L1140.07 814.493L1141.66 815.687V813.692V469.94Z" stroke="url(#paint0_linear_146_495)" stroke-width="2"/>
<path opacity="0.1" d="M1382.98 858.237H1381.98V859.237V969.101V971.088L1383.57 969.904L1417.38 944.814H1502.57H1503.57V943.814V859.237V858.237H1502.57H1382.98ZM1423.03 961.609H1422.7L1422.44 961.798L1377.79 994.107C1372.7 997.788 1365.58 994.161 1365.58 987.913V849.098C1365.58 844.873 1369.02 841.442 1373.27 841.442H1512.28C1516.53 841.442 1519.97 844.873 1519.97 849.098V892.375V893.375H1520.97H1555.72C1559.97 893.375 1563.41 896.806 1563.41 901.031V1022.47C1563.41 1028.73 1556.27 1032.35 1551.18 1028.65L1513.04 1000.87L1512.78 1000.68H1512.46H1434.08C1429.83 1000.68 1426.4 997.251 1426.4 993.026V962.609V961.609H1425.4H1423.03ZM1549.06 909.192V908.192H1548.06H1520.97H1519.97V909.192V953.953C1519.97 958.177 1516.53 961.609 1512.28 961.609H1441.75H1440.75V962.609V984.866V985.866H1441.75H1517.44L1547.46 1008.29L1549.06 1009.49V1007.49V909.192Z" stroke="url(#paint1_linear_146_495)" stroke-width="2"/>
<path opacity="0.1" d="M37.5339 797.886H36.5339V798.886V1023.22V1025.21L38.1303 1024.02L107.371 972.585H281.505H282.505V971.585V798.886V797.886H281.505H37.5339ZM119.235 1008.96H118.911L118.649 1009.15L27.5533 1075.12C16.4936 1083.13 1 1075.25 1 1061.63V778.183C1 768.977 8.48505 761.509 17.7244 761.509H301.314C310.553 761.509 318.038 768.977 318.038 778.183V866.552V867.552H319.038H389.936C399.175 867.552 406.66 875.02 406.66 884.226V1132.19C406.66 1145.83 391.119 1153.71 380.065 1145.65L302.262 1088.94L301.999 1088.75H301.673H141.795C132.556 1088.75 125.07 1081.28 125.07 1072.07V1009.96V1008.96H124.07H119.235ZM375.297 900.889V899.889H374.297H319.038H318.038V900.889V992.288C318.038 1001.49 310.553 1008.96 301.314 1008.96H157.434H156.434V1009.96V1055.41V1056.41H157.434H312.181L373.698 1102.41L375.297 1103.6V1101.61V900.889Z" stroke="url(#paint2_linear_146_495)" stroke-width="2"/>
<path opacity="0.1" d="M680.856 909.689H679.856V910.689V994.238V996.226L681.452 995.041L707.081 976.007H771.747H772.747V975.007V910.689V909.689H771.747H680.856ZM711.294 988.301H710.97L710.707 988.491L676.77 1013.06C673.061 1015.75 667.873 1013.1 667.873 1008.54V902.978C667.873 899.898 670.378 897.396 673.476 897.396H779.127C782.225 897.396 784.73 899.898 784.73 902.978V935.89V936.89H785.73H812.143C815.241 936.89 817.746 939.392 817.746 942.472V1034.82C817.746 1039.39 812.542 1042.03 808.835 1039.33L779.85 1018.21L779.587 1018.02H779.261H719.698C716.601 1018.02 714.095 1015.51 714.095 1012.43V989.301V988.301H713.095H711.294ZM807.317 948.678V947.678H806.317H785.73H784.73V948.678V982.718C784.73 985.798 782.225 988.301 779.127 988.301H725.525H724.525V989.301V1006.23V1007.23H725.525H782.967L805.718 1024.23L807.317 1025.43V1023.43V948.678Z" stroke="url(#paint3_linear_146_495)" stroke-width="2"/>
<path opacity="0.1" d="M152.154 459.778H151.154V460.778V544.327V546.315L152.75 545.13L178.379 526.097H243.045H244.045V525.097V460.778V459.778H243.045H152.154ZM182.591 538.39H182.267L182.005 538.58L148.067 563.15C144.359 565.834 139.17 563.189 139.17 558.634V453.067C139.17 449.987 141.676 447.485 144.774 447.485H250.425C253.522 447.485 256.028 449.987 256.028 453.067V485.979V486.979H257.028H283.441C286.538 486.979 289.044 489.481 289.044 492.561V584.913C289.044 589.476 283.839 592.12 280.133 589.419L251.147 568.296L250.884 568.104H250.558H190.996C187.898 568.104 185.393 565.602 185.393 562.522V539.39V538.39H184.393H182.591ZM278.614 498.768V497.768H277.614H257.028H256.028V498.768V532.808C256.028 535.888 253.522 538.39 250.425 538.39H196.822H195.822V539.39V556.316V557.316H196.822H254.265L277.016 574.323L278.614 575.518V573.522V498.768Z" stroke="url(#paint4_linear_146_495)" stroke-width="2"/>
<path opacity="0.1" d="M756.222 13.293H755.222V14.293V97.842V99.8302L756.818 98.6448L782.447 79.6118H847.113H848.113V78.6118V14.293V13.293H847.113H756.222ZM786.66 91.9048H786.336L786.073 92.0948L752.136 116.664C748.427 119.349 743.239 116.704 743.239 112.149V6.58232C743.239 3.50227 745.744 1 748.842 1H854.493C857.59 1 860.096 3.50227 860.096 6.58232V39.4939V40.4939H861.096H887.509C890.606 40.4939 893.112 42.9962 893.112 46.0763V138.428C893.112 142.991 887.907 145.635 884.201 142.934L855.216 121.811L854.952 121.619H854.627H795.064C791.967 121.619 789.461 119.117 789.461 116.037V92.9048V91.9048H788.461H786.66ZM882.682 52.2825V51.2825H881.682H861.096H860.096V52.2825V86.3225C860.096 89.4025 857.59 91.9048 854.493 91.9048H800.89H799.89V92.9048V109.831V110.831H800.89H858.333L881.084 127.838L882.682 129.033V127.037V52.2825Z" stroke="url(#paint5_linear_146_495)" stroke-width="2"/>
<path opacity="0.1" d="M38.337 51.4727H37.337V52.4727V165.626V167.615L38.9335 166.428L73.713 140.582H161.347H162.347V139.582V52.4727V51.4727H161.347H38.337ZM79.5311 157.939H79.2069L78.9444 158.129L33.0138 191.405C27.7637 195.208 20.4124 191.464 20.4124 185.001V42.0299C20.4124 37.6611 23.9634 34.1152 28.349 34.1152H171.335C175.721 34.1152 179.272 37.6611 179.272 42.0299V86.6031V87.6031H180.272H216.019C220.404 87.6031 223.955 91.1489 223.955 95.5177V220.592C223.955 227.066 216.581 230.808 211.334 226.981L172.106 198.374L171.842 198.182H171.516H90.9056C86.5199 198.182 82.9689 194.637 82.9689 190.268V158.939V157.939H81.9689H79.5311ZM209.133 103.923V102.923H208.133H180.272H179.272V103.923V150.024C179.272 154.393 175.721 157.939 171.335 157.939H98.7908H97.7908V158.939V181.862V182.862H98.7908H176.65L207.534 205.966L209.133 207.162V205.165V103.923Z" stroke="url(#paint6_linear_146_495)" stroke-width="2"/>
<path opacity="0.1" d="M1350.09 36.7021H1349.09V37.7021V258.087V260.075L1350.69 258.89L1418.76 208.362H1589.96H1590.96V207.362V37.7021V36.7021H1589.96H1350.09ZM1430.42 244.064H1430.1L1429.84 244.254L1340.27 309.063C1329.41 316.925 1314.19 309.187 1314.19 295.825V17.3628C1314.19 8.32933 1321.54 1 1330.62 1H1609.44C1618.52 1 1625.87 8.32933 1625.87 17.3628V104.177V105.177H1626.87H1696.57C1705.65 105.177 1713 112.506 1713 121.54V365.144C1713 378.53 1697.74 386.262 1686.88 378.353L1610.38 322.636L1610.12 322.445H1609.79H1452.6C1443.53 322.445 1436.18 315.115 1436.18 306.082V245.064V244.064H1435.18H1430.42ZM1682.2 137.91V136.91H1681.2H1626.87H1625.87V137.91V227.701C1625.87 236.735 1618.52 244.064 1609.44 244.064H1467.98H1466.98V245.064V289.711V290.711H1467.98H1620.12L1680.6 335.898L1682.2 337.092V335.097V137.91Z" stroke="url(#paint7_linear_146_495)" stroke-width="2"/>
<defs>
<linearGradient id="paint0_linear_146_495" x1="1629.65" y1="-215.059" x2="497.302" y2="899.618" gradientUnits="userSpaceOnUse">
<stop stop-color="#FAFAFA"/>
<stop offset="1" stop-color="#FAFAFA" stop-opacity="0"/>
</linearGradient>
<linearGradient id="paint1_linear_146_495" x1="1687.88" y1="713.31" x2="1364.08" y2="1032.05" gradientUnits="userSpaceOnUse">
<stop stop-color="#FAFAFA"/>
<stop offset="1" stop-color="#FAFAFA" stop-opacity="0"/>
</linearGradient>
<linearGradient id="paint2_linear_146_495" x1="659.539" y1="500.916" x2="-1.63372" y2="1151.13" gradientUnits="userSpaceOnUse">
<stop stop-color="#FAFAFA"/>
<stop offset="1" stop-color="#FAFAFA" stop-opacity="0"/>
</linearGradient>
<linearGradient id="paint3_linear_146_495" x1="912.584" y1="799.714" x2="666.339" y2="1041.95" gradientUnits="userSpaceOnUse">
<stop stop-color="#FAFAFA"/>
<stop offset="1" stop-color="#FAFAFA" stop-opacity="0"/>
</linearGradient>
<linearGradient id="paint4_linear_146_495" x1="383.881" y1="349.804" x2="137.637" y2="592.043" gradientUnits="userSpaceOnUse">
<stop stop-color="#FAFAFA"/>
<stop offset="1" stop-color="#FAFAFA" stop-opacity="0"/>
</linearGradient>
<linearGradient id="paint5_linear_146_495" x1="987.949" y1="-96.6813" x2="741.705" y2="145.558" gradientUnits="userSpaceOnUse">
<stop stop-color="#FAFAFA"/>
<stop offset="1" stop-color="#FAFAFA" stop-opacity="0"/>
</linearGradient>
<linearGradient id="paint6_linear_146_495" x1="351.953" y1="-97.8232" x2="18.4605" y2="230.015" gradientUnits="userSpaceOnUse">
<stop stop-color="#FAFAFA"/>
<stop offset="1" stop-color="#FAFAFA" stop-opacity="0"/>
</linearGradient>
<linearGradient id="paint7_linear_146_495" x1="1961.65" y1="-255.026" x2="1312.1" y2="384.272" gradientUnits="userSpaceOnUse">
<stop stop-color="#FAFAFA"/>
<stop offset="1" stop-color="#FAFAFA" stop-opacity="0"/>
</linearGradient>
</defs>
</svg>
