<svg width="633" height="382" viewBox="0 0 633 382" fill="none" xmlns="http://www.w3.org/2000/svg">
<g clip-path="url(#clip0_7_102)">
<g filter="url(#filter0_d_7_102)">
<path d="M279.7 13.748H27.4793C20.9751 13.748 15.7025 19.024 15.7025 25.5321V187.563C15.7025 194.071 20.9751 199.347 27.4793 199.347H279.7C286.204 199.347 291.476 194.071 291.476 187.563V25.5321C291.476 19.024 286.204 13.748 279.7 13.748Z" fill="#27272A"/>
<path d="M35.3305 27.4961C35.3305 24.242 32.6941 21.6041 29.4421 21.6041C26.19 21.6041 23.5536 24.242 23.5536 27.4961C23.5536 30.7502 26.19 33.3881 29.4421 33.3881C32.6941 33.3881 35.3305 30.7502 35.3305 27.4961Z" fill="#EF4444"/>
<path d="M52.9958 27.4961C52.9958 24.242 50.3594 21.6041 47.1073 21.6041C43.8553 21.6041 41.2189 24.242 41.2189 27.4961C41.2189 30.7502 43.8553 33.3881 47.1073 33.3881C50.3594 33.3881 52.9958 30.7502 52.9958 27.4961Z" fill="#71717A"/>
<path d="M169.292 21.6041H64.7726C61.5205 21.6041 58.8842 24.242 58.8842 27.4961C58.8842 30.7502 61.5205 33.3881 64.7726 33.3881H169.292C172.544 33.3881 175.18 30.7502 175.18 27.4961C175.18 24.242 172.544 21.6041 169.292 21.6041Z" fill="#71717A"/>
</g>
<g filter="url(#filter1_d_7_102)">
<path d="M589.823 60.3933H337.602C331.098 60.3933 325.825 65.6692 325.825 72.1774V234.208C325.825 240.716 331.098 245.992 337.602 245.992H589.823C596.327 245.992 601.599 240.716 601.599 234.208V72.1774C601.599 65.6692 596.327 60.3933 589.823 60.3933Z" fill="#27272A"/>
<path d="M345.453 74.1414C345.453 70.8873 342.817 68.2493 339.565 68.2493C336.313 68.2493 333.677 70.8873 333.677 74.1414C333.677 77.3954 336.313 80.0334 339.565 80.0334C342.817 80.0334 345.453 77.3954 345.453 74.1414Z" fill="#EF4444"/>
<path d="M363.119 74.1414C363.119 70.8873 360.482 68.2493 357.23 68.2493C353.978 68.2493 351.342 70.8873 351.342 74.1414C351.342 77.3954 353.978 80.0334 357.23 80.0334C360.482 80.0334 363.119 77.3954 363.119 74.1414Z" fill="#71717A"/>
<path d="M479.415 68.2493H374.895C371.643 68.2493 369.007 70.8873 369.007 74.1414C369.007 77.3954 371.643 80.0334 374.895 80.0334H479.415C482.667 80.0334 485.303 77.3954 485.303 74.1414C485.303 70.8873 482.667 68.2493 479.415 68.2493Z" fill="#71717A"/>
</g>
<g filter="url(#filter2_d_7_102)">
<path d="M595.904 283.799H405.512C390.607 283.799 378.524 295.89 378.524 310.805C378.524 325.719 390.607 337.81 405.512 337.81H595.904C610.81 337.81 622.893 325.719 622.893 310.805C622.893 295.89 610.81 283.799 595.904 283.799Z" fill="#27272A"/>
<path d="M437.898 310.805C437.898 303.212 431.747 297.057 424.159 297.057C416.571 297.057 410.419 303.212 410.419 310.805C410.419 318.397 416.571 324.553 424.159 324.553C431.747 324.553 437.898 318.397 437.898 310.805Z" fill="#71717A"/>
<mask id="mask0_7_102" style="mask-type:luminance" maskUnits="userSpaceOnUse" x="418" y="304" width="13" height="13">
<path d="M430.047 304.913H418.271V316.697H430.047V304.913Z" fill="white"/>
</mask>
<g mask="url(#mask0_7_102)">
<path d="M427.103 308.227V313.382C427.103 313.578 427.026 313.765 426.888 313.903C426.749 314.041 426.562 314.119 426.367 314.119H419.743C419.547 314.119 419.36 314.041 419.222 313.903C419.084 313.765 419.007 313.578 419.007 313.382V308.227C419.007 308.031 419.084 307.844 419.222 307.706C419.36 307.568 419.547 307.49 419.743 307.49H426.367C426.562 307.49 426.749 307.568 426.888 307.706C427.026 307.844 427.103 308.031 427.103 308.227ZM429.772 308.238C429.72 308.226 429.666 308.224 429.613 308.234C429.56 308.243 429.511 308.264 429.466 308.295L427.921 309.325C427.896 309.342 427.875 309.365 427.861 309.391C427.847 309.418 427.839 309.448 427.839 309.478V312.131C427.839 312.161 427.847 312.191 427.861 312.218C427.875 312.244 427.896 312.267 427.921 312.284L429.475 313.32C429.533 313.359 429.601 313.381 429.671 313.382C429.741 313.384 429.81 313.366 429.87 313.329C429.925 313.294 429.97 313.245 430.002 313.187C430.033 313.13 430.048 313.065 430.047 312.999V308.595C430.047 308.514 430.02 308.434 429.97 308.369C429.92 308.305 429.851 308.259 429.772 308.238Z" fill="#FAFAFA"/>
</g>
<path d="M473.229 310.805C473.229 303.212 467.078 297.057 459.489 297.057C451.901 297.057 445.75 303.212 445.75 310.805C445.75 318.397 451.901 324.553 459.489 324.553C467.078 324.553 473.229 318.397 473.229 310.805Z" fill="#71717A"/>
<mask id="mask1_7_102" style="mask-type:luminance" maskUnits="userSpaceOnUse" x="453" y="304" width="13" height="13">
<path d="M465.378 304.913H453.601V316.697H465.378V304.913Z" fill="white"/>
</mask>
<g mask="url(#mask1_7_102)">
<path d="M457.281 310.805V307.859C457.281 307.273 457.514 306.711 457.928 306.296C458.342 305.882 458.904 305.649 459.489 305.649C460.075 305.649 460.637 305.882 461.051 306.296C461.465 306.711 461.697 307.273 461.697 307.859V310.805C461.697 311.39 461.465 311.953 461.051 312.367C460.637 312.781 460.075 313.014 459.489 313.014C458.904 313.014 458.342 312.781 457.928 312.367C457.514 311.953 457.281 311.39 457.281 310.805ZM463.17 310.805C463.17 310.707 463.131 310.613 463.062 310.544C462.993 310.475 462.899 310.436 462.802 310.436C462.704 310.436 462.61 310.475 462.541 310.544C462.472 310.613 462.434 310.707 462.434 310.805C462.434 311.586 462.123 312.335 461.571 312.888C461.019 313.44 460.27 313.751 459.489 313.751C458.709 313.751 457.96 313.44 457.407 312.888C456.855 312.335 456.545 311.586 456.545 310.805C456.545 310.707 456.506 310.613 456.437 310.544C456.368 310.475 456.275 310.436 456.177 310.436C456.079 310.436 455.986 310.475 455.917 310.544C455.848 310.613 455.809 310.707 455.809 310.805C455.81 311.717 456.15 312.597 456.761 313.274C457.373 313.95 458.214 314.376 459.121 314.469V315.592C459.121 315.69 459.16 315.783 459.229 315.852C459.298 315.921 459.392 315.96 459.489 315.96C459.587 315.96 459.681 315.921 459.749 315.852C459.819 315.783 459.857 315.69 459.857 315.592V314.469C460.765 314.376 461.606 313.95 462.218 313.274C462.829 312.597 463.169 311.717 463.17 310.805Z" fill="#FAFAFA"/>
</g>
<path d="M520.336 310.805C520.336 299.958 511.549 291.164 500.708 291.164C489.868 291.164 481.08 299.958 481.08 310.805C481.08 321.652 489.868 330.445 500.708 330.445C511.549 330.445 520.336 321.652 520.336 310.805Z" fill="#EF4444"/>
<mask id="mask2_7_102" style="mask-type:luminance" maskUnits="userSpaceOnUse" x="488" y="299" width="25" height="24">
<path d="M512.485 299.021H488.931V322.589H512.485V299.021Z" fill="white"/>
</mask>
<g mask="url(#mask2_7_102)">
<path d="M510.669 314.353C510.478 314.519 510.208 314.639 509.904 314.695C509.6 314.751 509.276 314.74 508.981 314.664L504.472 313.596L504.442 313.59C504.217 313.53 504.02 313.433 503.863 313.309C503.706 313.185 503.598 313.037 503.549 312.878L502.98 311.053C501.498 310.715 499.889 310.718 498.407 311.059L497.867 312.871C497.818 313.031 497.71 313.181 497.553 313.307C497.396 313.432 497.195 313.53 496.969 313.591L496.94 313.597L492.435 314.664C492.268 314.708 492.087 314.731 491.91 314.731C491.684 314.732 491.463 314.698 491.262 314.632C491.061 314.567 490.884 314.472 490.747 314.355C489.162 312.991 489.339 311.181 491.179 309.953C496.346 306.506 505.071 306.506 510.238 309.953C512.078 311.179 512.254 312.99 510.669 314.353Z" fill="#FAFAFA"/>
</g>
<path d="M555.667 310.805C555.667 303.212 549.515 297.057 541.927 297.057C534.339 297.057 528.188 303.212 528.188 310.805C528.188 318.397 534.339 324.553 541.927 324.553C549.515 324.553 555.667 318.397 555.667 310.805Z" fill="#71717A"/>
<mask id="mask3_7_102" style="mask-type:luminance" maskUnits="userSpaceOnUse" x="536" y="304" width="12" height="13">
<path d="M547.816 304.913H536.039V316.697H547.816V304.913Z" fill="white"/>
</mask>
<g mask="url(#mask3_7_102)">
<path d="M547.815 311.173C547.815 311.271 547.776 311.364 547.707 311.433C547.639 311.502 547.546 311.541 547.447 311.541H546.711V312.278C546.711 312.375 546.672 312.469 546.603 312.538C546.535 312.607 546.441 312.646 546.343 312.646C546.245 312.646 546.152 312.607 546.083 312.538C546.015 312.469 545.975 312.375 545.975 312.278V311.541H545.239C545.141 311.541 545.048 311.502 544.979 311.433C544.91 311.364 544.871 311.271 544.871 311.173C544.871 311.075 544.91 310.981 544.979 310.913C545.048 310.843 545.141 310.805 545.239 310.805H545.975V310.068C545.975 309.97 546.015 309.877 546.083 309.808C546.152 309.739 546.245 309.7 546.343 309.7C546.441 309.7 546.535 309.739 546.603 309.808C546.672 309.877 546.711 309.97 546.711 310.068V310.805H547.447C547.546 310.805 547.639 310.843 547.707 310.913C547.776 310.981 547.815 311.075 547.815 311.173ZM542.663 312.171C543.242 311.811 543.684 311.273 543.929 310.639C544.174 310.004 544.204 309.307 544.017 308.653C543.831 307.999 543.433 307.424 542.894 307.014C542.349 306.605 541.687 306.384 541.009 306.384C540.327 306.384 539.67 306.605 539.125 307.014C538.585 307.424 538.188 307.999 538.001 308.653C537.815 309.307 537.844 310.004 538.09 310.639C538.335 311.273 538.777 311.811 539.356 312.171C538.404 312.482 537.55 313.063 536.863 313.882C536.819 313.935 536.789 314 536.78 314.07C536.77 314.139 536.78 314.21 536.809 314.273C536.838 314.337 536.888 314.39 536.946 314.428C537.005 314.466 537.074 314.487 537.143 314.487H544.871C544.94 314.487 545.009 314.467 545.068 314.43C545.126 314.392 545.175 314.338 545.205 314.274C545.234 314.211 545.244 314.14 545.234 314.071C545.229 314.001 545.2 313.936 545.151 313.882C544.464 313.063 543.61 312.482 542.663 312.171Z" fill="#FAFAFA"/>
</g>
<path d="M590.997 310.805C590.997 303.212 584.846 297.057 577.258 297.057C569.669 297.057 563.518 303.212 563.518 310.805C563.518 318.397 569.669 324.553 577.258 324.553C584.846 324.553 590.997 318.397 590.997 310.805Z" fill="#71717A"/>
<mask id="mask4_7_102" style="mask-type:luminance" maskUnits="userSpaceOnUse" x="571" y="304" width="13" height="13">
<path d="M583.146 304.913H571.369V316.697H583.146V304.913Z" fill="white"/>
</mask>
<g mask="url(#mask4_7_102)">
<path d="M578.548 310.805C578.548 311.059 578.47 311.309 578.327 311.52C578.185 311.733 577.984 311.898 577.748 311.995C577.513 312.093 577.258 312.118 577.007 312.069C576.757 312.019 576.526 311.896 576.345 311.716C576.168 311.536 576.046 311.306 575.996 311.056C575.943 310.806 575.972 310.547 576.065 310.311C576.163 310.076 576.33 309.875 576.541 309.733C576.752 309.591 577.002 309.516 577.258 309.516C577.601 309.516 577.925 309.652 578.17 309.893C578.411 310.135 578.548 310.463 578.548 310.805ZM573.577 309.516C573.322 309.516 573.072 309.591 572.861 309.733C572.65 309.875 572.483 310.076 572.385 310.311C572.292 310.547 572.262 310.806 572.316 311.056C572.365 311.306 572.488 311.536 572.665 311.716C572.846 311.896 573.077 312.019 573.327 312.069C573.577 312.118 573.832 312.093 574.068 311.995C574.304 311.898 574.505 311.733 574.647 311.52C574.789 311.309 574.868 311.059 574.868 310.805C574.868 310.463 574.73 310.135 574.49 309.893C574.245 309.652 573.921 309.516 573.577 309.516ZM580.938 309.516C580.683 309.516 580.432 309.591 580.221 309.733C580.01 309.875 579.844 310.076 579.745 310.311C579.652 310.547 579.623 310.806 579.677 311.056C579.726 311.306 579.848 311.536 580.025 311.716C580.207 311.896 580.437 312.019 580.688 312.069C580.938 312.118 581.193 312.093 581.429 311.995C581.664 311.898 581.865 311.733 582.008 311.52C582.15 311.309 582.228 311.059 582.228 310.805C582.228 310.635 582.194 310.468 582.13 310.311C582.062 310.155 581.968 310.013 581.851 309.893C581.728 309.773 581.586 309.679 581.429 309.614C581.276 309.549 581.105 309.516 580.938 309.516Z" fill="#FAFAFA"/>
</g>
</g>
<g filter="url(#filter3_d_7_102)">
<path d="M662.446 85.9255H540.262C535.926 85.9255 532.411 89.4427 532.411 93.7815V170.869C532.411 175.208 535.926 178.725 540.262 178.725H662.446C666.783 178.725 670.298 175.208 670.298 170.869V93.7815C670.298 89.4427 666.783 85.9255 662.446 85.9255Z" fill="#27272A"/>
</g>
<g filter="url(#filter4_d_7_102)">
<path d="M345.453 178.725H93.2332C86.729 178.725 81.4564 184.001 81.4564 190.509V352.54C81.4564 359.048 86.729 364.324 93.2332 364.324H345.453C351.958 364.324 357.23 359.048 357.23 352.54V190.509C357.23 184.001 351.958 178.725 345.453 178.725Z" fill="#27272A"/>
<path d="M101.084 192.473C101.084 189.219 98.448 186.581 95.196 186.581C91.9439 186.581 89.3076 189.219 89.3076 192.473C89.3076 195.727 91.9439 198.365 95.196 198.365C98.448 198.365 101.084 195.727 101.084 192.473Z" fill="#EF4444"/>
<path d="M118.75 192.473C118.75 189.219 116.113 186.581 112.861 186.581C109.609 186.581 106.973 189.219 106.973 192.473C106.973 195.727 109.609 198.365 112.861 198.365C116.113 198.365 118.75 195.727 118.75 192.473Z" fill="#71717A"/>
<path d="M235.046 186.581H130.526C127.274 186.581 124.638 189.219 124.638 192.473C124.638 195.727 127.274 198.365 130.526 198.365H235.046C238.298 198.365 240.934 195.727 240.934 192.473C240.934 189.219 238.298 186.581 235.046 186.581Z" fill="#71717A"/>
</g>
</g>
<defs>
<filter id="filter0_d_7_102" x="-16.2975" y="-14.252" width="339.774" height="249.599" filterUnits="userSpaceOnUse" color-interpolation-filters="sRGB">
<feFlood flood-opacity="0" result="BackgroundImageFix"/>
<feColorMatrix in="SourceAlpha" type="matrix" values="0 0 0 0 0 0 0 0 0 0 0 0 0 0 0 0 0 0 127 0" result="hardAlpha"/>
<feOffset dy="4"/>
<feGaussianBlur stdDeviation="16"/>
<feComposite in2="hardAlpha" operator="out"/>
<feColorMatrix type="matrix" values="0 0 0 0 0 0 0 0 0 0 0 0 0 0 0 0 0 0 0.25 0"/>
<feBlend mode="normal" in2="BackgroundImageFix" result="effect1_dropShadow_7_102"/>
<feBlend mode="normal" in="SourceGraphic" in2="effect1_dropShadow_7_102" result="shape"/>
</filter>
<filter id="filter1_d_7_102" x="293.825" y="32.3933" width="339.774" height="249.599" filterUnits="userSpaceOnUse" color-interpolation-filters="sRGB">
<feFlood flood-opacity="0" result="BackgroundImageFix"/>
<feColorMatrix in="SourceAlpha" type="matrix" values="0 0 0 0 0 0 0 0 0 0 0 0 0 0 0 0 0 0 127 0" result="hardAlpha"/>
<feOffset dy="4"/>
<feGaussianBlur stdDeviation="16"/>
<feComposite in2="hardAlpha" operator="out"/>
<feColorMatrix type="matrix" values="0 0 0 0 0 0 0 0 0 0 0 0 0 0 0 0 0 0 0.25 0"/>
<feBlend mode="normal" in2="BackgroundImageFix" result="effect1_dropShadow_7_102"/>
<feBlend mode="normal" in="SourceGraphic" in2="effect1_dropShadow_7_102" result="shape"/>
</filter>
<filter id="filter2_d_7_102" x="346.524" y="255.799" width="308.369" height="118.01" filterUnits="userSpaceOnUse" color-interpolation-filters="sRGB">
<feFlood flood-opacity="0" result="BackgroundImageFix"/>
<feColorMatrix in="SourceAlpha" type="matrix" values="0 0 0 0 0 0 0 0 0 0 0 0 0 0 0 0 0 0 127 0" result="hardAlpha"/>
<feOffset dy="4"/>
<feGaussianBlur stdDeviation="16"/>
<feComposite in2="hardAlpha" operator="out"/>
<feColorMatrix type="matrix" values="0 0 0 0 0 0 0 0 0 0 0 0 0 0 0 0 0 0 0.25 0"/>
<feBlend mode="normal" in2="BackgroundImageFix" result="effect1_dropShadow_7_102"/>
<feBlend mode="normal" in="SourceGraphic" in2="effect1_dropShadow_7_102" result="shape"/>
</filter>
<filter id="filter3_d_7_102" x="500.411" y="57.9255" width="201.887" height="156.799" filterUnits="userSpaceOnUse" color-interpolation-filters="sRGB">
<feFlood flood-opacity="0" result="BackgroundImageFix"/>
<feColorMatrix in="SourceAlpha" type="matrix" values="0 0 0 0 0 0 0 0 0 0 0 0 0 0 0 0 0 0 127 0" result="hardAlpha"/>
<feOffset dy="4"/>
<feGaussianBlur stdDeviation="16"/>
<feComposite in2="hardAlpha" operator="out"/>
<feColorMatrix type="matrix" values="0 0 0 0 0 0 0 0 0 0 0 0 0 0 0 0 0 0 0.25 0"/>
<feBlend mode="normal" in2="BackgroundImageFix" result="effect1_dropShadow_7_102"/>
<feBlend mode="normal" in="SourceGraphic" in2="effect1_dropShadow_7_102" result="shape"/>
</filter>
<filter id="filter4_d_7_102" x="49.4564" y="150.725" width="339.774" height="249.599" filterUnits="userSpaceOnUse" color-interpolation-filters="sRGB">
<feFlood flood-opacity="0" result="BackgroundImageFix"/>
<feColorMatrix in="SourceAlpha" type="matrix" values="0 0 0 0 0 0 0 0 0 0 0 0 0 0 0 0 0 0 127 0" result="hardAlpha"/>
<feOffset dy="4"/>
<feGaussianBlur stdDeviation="16"/>
<feComposite in2="hardAlpha" operator="out"/>
<feColorMatrix type="matrix" values="0 0 0 0 0 0 0 0 0 0 0 0 0 0 0 0 0 0 0.25 0"/>
<feBlend mode="normal" in2="BackgroundImageFix" result="effect1_dropShadow_7_102"/>
<feBlend mode="normal" in="SourceGraphic" in2="effect1_dropShadow_7_102" result="shape"/>
</filter>
<clipPath id="clip0_7_102">
<rect width="686" height="382" fill="white"/>
</clipPath>
</defs>
</svg>
