<svg width="162" height="48" viewBox="0 0 162 48" fill="none" xmlns="http://www.w3.org/2000/svg">
<path fill-rule="evenodd" clip-rule="evenodd" d="M21.808 15.2505H0V10.8932H23.9888C25.1932 10.8932 26.1696 11.8686 26.1696 13.0719V37.037H2.1808C0.976378 37.037 0 36.0616 0 34.8583V21.7865H21.808V15.2505ZM4.3616 26.1438H21.808V32.6797H4.3616V26.1438Z" fill="#FAFAFA"/>
<path fill-rule="evenodd" clip-rule="evenodd" d="M130.848 15.2505H109.04V10.8932H133.029C134.233 10.8932 135.21 11.8686 135.21 13.0719V37.037H111.221C110.016 37.037 109.04 36.0616 109.04 34.8583V21.7865H130.848V15.2505ZM113.402 26.1438H130.848V32.6797H113.402V26.1438Z" fill="#FAFAFA"/>
<path fill-rule="evenodd" clip-rule="evenodd" d="M67.6048 2.17865C67.6048 0.975413 66.6285 0 65.424 0H30.5312C29.3268 0 28.3504 0.975412 28.3504 2.17865V37.1194C28.3504 38.8993 30.3711 39.9282 31.8127 38.8822L43.0211 30.75H43.616V38.4064C43.616 39.6096 44.5924 40.5851 45.7968 40.5851H65.4682L75.041 47.5762C76.4819 48.6285 78.5089 47.6005 78.5089 45.8175V15.2505C78.5089 14.0473 77.5325 13.0719 76.328 13.0719H67.6048V2.17865ZM32.9686 4.73077V32.3842L41.5206 26.0193H62.9867V4.73077H32.9686ZM65.424 30.75C66.6285 30.75 67.6048 29.7746 67.6048 28.5714V17.3047H74.4038V42.0472L66.802 36.3523H47.7211V30.75H65.424Z" fill="#8B5CF6"/>
<path d="M80.6897 13.0722C80.6897 11.869 81.666 10.8936 82.8705 10.8936H106.859V15.2508H85.0513V32.68H106.859V37.0373H82.8705C81.666 37.0373 80.6897 36.0619 80.6897 34.8587V13.0722Z" fill="#FAFAFA"/>
<path d="M137.39 2.17865H141.752V32.6797H148.294V37.037H139.571C138.367 37.037 137.39 36.0616 137.39 34.8583V2.17865Z" fill="#FAFAFA"/>
<path d="M150.475 2.17865H154.837V32.6797H161.379V37.037H152.656C151.452 37.037 150.475 36.0616 150.475 34.8583V2.17865Z" fill="#FAFAFA"/>
</svg>
